# Blender 4.5.3 LTS
# www.blender.org
mtllib CeilingLight.mtl
o Body
v 0.400000 0.250000 -2.000000
v 0.400000 -0.250000 -2.000000
v 0.400000 0.250000 2.000000
v 0.400000 -0.250000 2.000000
v -0.400000 0.250000 -2.000000
v -0.400000 -0.250000 -2.000000
v -0.400000 0.250000 2.000000
v -0.400000 -0.250000 2.000000
v -0.320000 -0.250000 -2.000000
v -0.320000 0.250000 2.000000
v -0.320000 -0.250000 2.000000
v -0.320000 0.250000 -2.000000
v 0.328000 -0.250000 2.000000
v 0.328000 0.250000 -2.000000
v 0.328000 -0.250000 -2.000000
v 0.328000 0.250000 2.000000
v 0.400000 0.175000 -2.000000
v -0.400000 0.175000 2.000000
v 0.400000 0.175000 2.000000
v -0.400000 0.175000 -2.000000
v -0.320000 0.175000 -2.000000
v -0.320000 0.175000 2.000000
v 0.328000 0.175000 2.000000
v 0.328000 0.175000 -2.000000
v -0.400000 -0.250000 0.000000
v 0.400000 0.250000 0.000000
v -0.400000 0.250000 0.000000
v 0.400000 -0.250000 0.000000
v -0.320000 -0.250000 0.000000
v -0.320000 0.250000 0.000000
v 0.328000 0.250000 0.000000
v 0.328000 -0.250000 0.000000
v 0.400000 0.175000 0.000000
v -0.400000 0.175000 0.000000
v -0.400000 -0.250000 1.900000
v 0.400000 0.250000 1.900000
v -0.320000 -0.250000 1.900000
v -0.320000 0.250000 1.900000
v 0.328000 0.250000 1.900000
v 0.328000 -0.250000 1.900000
v 0.400000 0.175000 1.900000
v -0.400000 0.250000 1.900000
v 0.400000 -0.250000 1.900000
v -0.400000 0.175000 1.900000
v -0.400000 0.250000 -1.900000
v 0.400000 -0.250000 -1.900000
v -0.400000 0.175000 -1.900000
v -0.400000 -0.250000 -1.900000
v 0.400000 0.250000 -1.900000
v -0.320000 -0.250000 -1.900000
v -0.320000 0.250000 -1.900000
v 0.328000 0.250000 -1.900000
v 0.328000 -0.250000 -1.900000
v 0.400000 0.175000 -1.900000
vn -0.0000 1.0000 -0.0000
vn -0.0000 -0.0000 1.0000
vn -1.0000 -0.0000 -0.0000
vn -0.0000 -1.0000 -0.0000
vn 1.0000 -0.0000 -0.0000
vn -0.0000 -0.0000 -1.0000
vt 0.850000 0.743750
vt 0.875000 0.743750
vt 0.875000 0.750000
vt 0.850000 0.750000
vt 0.587500 0.975000
vt 0.625000 0.975000
vt 0.625000 1.000000
vt 0.587500 1.000000
vt 0.587500 0.243750
vt 0.625000 0.243750
vt 0.625000 0.250000
vt 0.587500 0.250000
vt 0.352500 0.743750
vt 0.375000 0.743750
vt 0.375000 0.750000
vt 0.352500 0.750000
vt 0.587500 0.743750
vt 0.625000 0.743750
vt 0.625000 0.750000
vt 0.587500 0.750000
vt 0.587500 0.477500
vt 0.625000 0.477500
vt 0.625000 0.500000
vt 0.587500 0.500000
vt 0.625000 0.275000
vt 0.587500 0.275000
vt 0.125000 0.743750
vt 0.150000 0.743750
vt 0.150000 0.750000
vt 0.125000 0.750000
vt 0.587500 0.772500
vt 0.625000 0.772500
vt 0.647500 0.743750
vt 0.647500 0.750000
vt 0.375000 0.275000
vt 0.375000 0.477500
vt 0.375000 0.772500
vt 0.375000 0.975000
vt 0.375000 0.250000
vt 0.375000 0.500000
vt 0.375000 0.243750
vt 0.375000 1.000000
vt 0.375000 0.006250
vt 0.587500 0.006250
vt 0.587500 0.125000
vt 0.375000 0.125000
vt 0.375000 0.506250
vt 0.587500 0.506250
vt 0.587500 0.625000
vt 0.375000 0.625000
vt 0.000000 0.000000
vt 0.625000 0.506250
vt 0.647500 0.506250
vt 0.647500 0.625000
vt 0.625000 0.625000
vt 0.850000 0.506250
vt 0.850000 0.625000
vt 0.125000 0.506250
vt 0.150000 0.506250
vt 0.150000 0.625000
vt 0.125000 0.625000
vt 0.352500 0.506250
vt 0.352500 0.625000
vt 0.625000 0.006250
vt 0.625000 0.125000
vt 0.875000 0.506250
vt 0.875000 0.625000
vt 0.587500 0.000000
vt 0.625000 0.000000
vt 0.375000 0.000000
vt 0.850000 0.500000
vt 0.875000 0.500000
vt 0.352500 0.500000
vt 0.125000 0.500000
vt 0.150000 0.500000
vt 0.647500 0.500000
s 0
usemtl Material
f 38/1/1 42/2/1 7/3/1 10/4/1
f 22/5/2 10/6/2 7/7/2 18/8/2
f 47/9/3 45/10/3 5/11/3 20/12/3
f 40/13/4 43/14/4 4/15/4 13/16/4
f 41/17/5 36/18/5 3/19/5 19/20/5
f 24/21/6 14/22/6 1/23/6 17/24/6
f 20/12/6 5/11/6 12/25/6 21/26/6
f 35/27/4 37/28/4 11/29/4 8/30/4
f 23/31/2 16/32/2 10/6/2 22/5/2
f 39/33/1 38/1/1 10/4/1 16/34/1
f 36/18/1 39/33/1 16/34/1 3/19/1
f 19/20/2 3/19/2 16/32/2 23/31/2
f 21/26/6 12/25/6 14/22/6 24/21/6
f 37/28/4 40/13/4 13/16/4 11/29/4
f 9/35/6 21/26/6 24/21/6 15/36/6
f 4/15/2 19/20/2 23/31/2 13/37/2
f 13/37/2 23/31/2 22/5/2 11/38/2
f 6/39/6 20/12/6 21/26/6 9/35/6
f 15/36/6 24/21/6 17/24/6 2/40/6
f 43/14/5 41/17/5 19/20/5 4/15/5
f 48/41/3 47/9/3 20/12/3 6/39/3
f 11/38/2 22/5/2 18/8/2 8/42/2
f 35/43/3 44/44/3 34/45/3 25/46/3
f 46/47/5 54/48/5 33/49/5 28/50/5
f 39/33/5 40/13/5 53/51/5 52/51/5
f 49/52/1 52/53/1 31/54/1 26/55/1
f 52/53/1 51/56/1 30/57/1 31/54/1
f 48/58/4 50/59/4 29/60/4 25/61/4
f 54/48/5 49/52/5 26/55/5 33/49/5
f 53/62/4 46/47/4 28/50/4 32/63/4
f 44/44/3 42/64/3 27/65/3 34/45/3
f 51/56/1 45/66/1 27/67/1 30/57/1
f 18/68/3 7/69/3 42/64/3 44/44/3
f 8/70/3 18/68/3 44/44/3 35/43/3
f 28/50/5 33/49/5 41/17/5 43/14/5
f 38/1/2 37/28/2 40/13/2 39/33/2
f 26/55/1 31/54/1 39/33/1 36/18/1
f 31/54/1 30/57/1 38/1/1 39/33/1
f 25/61/4 29/60/4 37/28/4 35/27/4
f 33/49/5 26/55/5 36/18/5 41/17/5
f 32/63/4 28/50/4 43/14/4 40/13/4
f 30/57/1 27/67/1 42/2/1 38/1/1
f 12/71/1 5/72/1 45/66/1 51/56/1
f 15/73/4 2/40/4 46/47/4 53/62/4
f 17/24/5 1/23/5 49/52/5 54/48/5
f 6/74/4 9/75/4 50/59/4 48/58/4
f 14/76/1 12/71/1 51/56/1 52/53/1
f 1/23/1 14/76/1 52/53/1 49/52/1
f 9/75/4 15/73/4 53/62/4 50/59/4
f 2/40/5 17/24/5 54/48/5 46/47/5
f 25/46/3 34/45/3 47/9/3 48/41/3
f 34/45/3 27/65/3 45/10/3 47/9/3
f 51/51/2 50/51/2 53/51/2 52/51/2
f 37/28/3 38/1/3 51/51/3 50/51/3
f 54/51/1 47/51/1 34/51/1 44/51/1 41/51/1 33/51/1
o Bulb
v -0.150000 0.075000 -1.900000
v -0.150000 0.075000 1.900000
v -0.130491 0.073078 -1.900000
v -0.130491 0.073079 1.900000
v -0.111732 0.067388 -1.900000
v -0.111732 0.067388 1.900000
v -0.094443 0.058147 -1.900000
v -0.094443 0.058147 1.900000
v -0.079289 0.045711 -1.900000
v -0.079289 0.045711 1.900000
v -0.066853 0.030557 -1.900000
v -0.066853 0.030557 1.900000
v -0.057612 0.013268 -1.900000
v -0.057612 0.013268 1.900000
v -0.051921 -0.005491 -1.900000
v -0.051921 -0.005491 1.900000
v -0.050000 -0.025000 -1.900000
v -0.050000 -0.025000 1.900000
v -0.051921 -0.044509 -1.900000
v -0.051921 -0.044509 1.900000
v -0.057612 -0.063268 -1.900000
v -0.057612 -0.063268 1.900000
v -0.066853 -0.080557 -1.900000
v -0.066853 -0.080557 1.900000
v -0.079289 -0.095711 -1.900000
v -0.079289 -0.095711 1.900000
v -0.094443 -0.108147 -1.900000
v -0.094443 -0.108147 1.900000
v -0.111732 -0.117388 -1.900000
v -0.111732 -0.117388 1.900000
v -0.130491 -0.123079 -1.900000
v -0.130491 -0.123078 1.900000
v -0.150000 -0.125000 -1.900000
v -0.150000 -0.125000 1.900000
v -0.169509 -0.123079 -1.900000
v -0.169509 -0.123078 1.900000
v -0.188268 -0.117388 -1.900000
v -0.188268 -0.117388 1.900000
v -0.205557 -0.108147 -1.900000
v -0.205557 -0.108147 1.900000
v -0.220711 -0.095711 -1.900000
v -0.220711 -0.095711 1.900000
v -0.233147 -0.080557 -1.900000
v -0.233147 -0.080557 1.900000
v -0.242388 -0.063268 -1.900000
v -0.242388 -0.063268 1.900000
v -0.248079 -0.044509 -1.900000
v -0.248079 -0.044509 1.900000
v -0.250000 -0.025000 -1.900000
v -0.250000 -0.025000 1.900000
v -0.248079 -0.005491 -1.900000
v -0.248079 -0.005491 1.900000
v -0.242388 0.013268 -1.900000
v -0.242388 0.013268 1.900000
v -0.233147 0.030557 -1.900000
v -0.233147 0.030557 1.900000
v -0.220711 0.045711 -1.900000
v -0.220711 0.045711 1.900000
v -0.205557 0.058147 -1.900000
v -0.205557 0.058147 1.900000
v -0.188268 0.067388 -1.900000
v -0.188268 0.067388 1.900000
v -0.169509 0.073078 -1.900000
v -0.169509 0.073079 1.900000
vn -0.0000 1.0000 -0.0000
vn 0.1951 0.9808 -0.0000
vn 0.3827 0.9239 -0.0000
vn 0.5556 0.8315 -0.0000
vn 0.7071 0.7071 -0.0000
vn 0.8315 0.5556 -0.0000
vn 0.9239 0.3827 -0.0000
vn 0.9808 0.1951 -0.0000
vn 1.0000 -0.0000 -0.0000
vn 0.9808 -0.1951 -0.0000
vn 0.9239 -0.3827 -0.0000
vn 0.8315 -0.5556 -0.0000
vn 0.7071 -0.7071 -0.0000
vn 0.5556 -0.8315 -0.0000
vn 0.3827 -0.9239 -0.0000
vn 0.1951 -0.9808 -0.0000
vn -0.0000 -1.0000 -0.0000
vn -0.1951 -0.9808 -0.0000
vn -0.3827 -0.9239 -0.0000
vn -0.5556 -0.8315 -0.0000
vn -0.7071 -0.7071 -0.0000
vn -0.8315 -0.5556 -0.0000
vn -0.9239 -0.3827 -0.0000
vn -0.9808 -0.1951 -0.0000
vn -1.0000 -0.0000 -0.0000
vn -0.9808 0.1951 -0.0000
vn -0.9239 0.3827 -0.0000
vn -0.8315 0.5556 -0.0000
vn -0.7071 0.7071 -0.0000
vn -0.5556 0.8315 -0.0000
vn -0.3827 0.9239 -0.0000
vn -0.0000 -0.0000 1.0000
vn -0.1951 0.9808 -0.0000
vn -0.0000 -0.0000 -1.0000
vt 1.000000 0.500000
vt 1.000000 1.000000
vt 0.968750 1.000000
vt 0.968750 0.500000
vt 0.937500 1.000000
vt 0.937500 0.500000
vt 0.906250 1.000000
vt 0.906250 0.500000
vt 0.875000 1.000000
vt 0.875000 0.500000
vt 0.843750 1.000000
vt 0.843750 0.500000
vt 0.812500 1.000000
vt 0.812500 0.500000
vt 0.781250 1.000000
vt 0.781250 0.500000
vt 0.750000 1.000000
vt 0.750000 0.500000
vt 0.718750 1.000000
vt 0.718750 0.500000
vt 0.687500 1.000000
vt 0.687500 0.500000
vt 0.656250 1.000000
vt 0.656250 0.500000
vt 0.625000 1.000000
vt 0.625000 0.500000
vt 0.593750 1.000000
vt 0.593750 0.500000
vt 0.562500 1.000000
vt 0.562500 0.500000
vt 0.531250 1.000000
vt 0.531250 0.500000
vt 0.500000 1.000000
vt 0.500000 0.500000
vt 0.468750 1.000000
vt 0.468750 0.500000
vt 0.437500 1.000000
vt 0.437500 0.500000
vt 0.406250 1.000000
vt 0.406250 0.500000
vt 0.375000 1.000000
vt 0.375000 0.500000
vt 0.343750 1.000000
vt 0.343750 0.500000
vt 0.312500 1.000000
vt 0.312500 0.500000
vt 0.281250 1.000000
vt 0.281250 0.500000
vt 0.250000 1.000000
vt 0.250000 0.500000
vt 0.218750 1.000000
vt 0.218750 0.500000
vt 0.187500 1.000000
vt 0.187500 0.500000
vt 0.156250 1.000000
vt 0.156250 0.500000
vt 0.125000 1.000000
vt 0.125000 0.500000
vt 0.093750 1.000000
vt 0.093750 0.500000
vt 0.062500 1.000000
vt 0.062500 0.500000
vt 0.296822 0.485388
vt 0.250000 0.490000
vt 0.203178 0.485388
vt 0.158156 0.471731
vt 0.116663 0.449553
vt 0.080294 0.419706
vt 0.050447 0.383337
vt 0.028269 0.341844
vt 0.014612 0.296822
vt 0.010000 0.250000
vt 0.014612 0.203178
vt 0.028269 0.158156
vt 0.050447 0.116663
vt 0.080294 0.080294
vt 0.116663 0.050447
vt 0.158156 0.028269
vt 0.203178 0.014612
vt 0.250000 0.010000
vt 0.296822 0.014612
vt 0.341844 0.028269
vt 0.383337 0.050447
vt 0.419706 0.080294
vt 0.449553 0.116663
vt 0.471731 0.158156
vt 0.485388 0.203178
vt 0.490000 0.250000
vt 0.485388 0.296822
vt 0.471731 0.341844
vt 0.449553 0.383337
vt 0.419706 0.419706
vt 0.383337 0.449553
vt 0.341844 0.471731
vt 0.031250 1.000000
vt 0.031250 0.500000
vt 0.000000 1.000000
vt 0.000000 0.500000
vt 0.750000 0.490000
vt 0.796822 0.485388
vt 0.841844 0.471731
vt 0.883337 0.449553
vt 0.919706 0.419706
vt 0.949553 0.383337
vt 0.971731 0.341844
vt 0.985388 0.296822
vt 0.990000 0.250000
vt 0.985388 0.203178
vt 0.971731 0.158156
vt 0.949553 0.116663
vt 0.919706 0.080294
vt 0.883337 0.050447
vt 0.841844 0.028269
vt 0.796822 0.014612
vt 0.750000 0.010000
vt 0.703178 0.014612
vt 0.658156 0.028269
vt 0.616663 0.050447
vt 0.580294 0.080294
vt 0.550447 0.116663
vt 0.528269 0.158156
vt 0.514612 0.203178
vt 0.510000 0.250000
vt 0.514612 0.296822
vt 0.528269 0.341844
vt 0.550447 0.383337
vt 0.580294 0.419706
vt 0.616663 0.449553
vt 0.658156 0.471731
vt 0.703178 0.485388
s 1
f 55/77/7 56/78/7 58/79/8 57/80/8
f 57/80/8 58/79/8 60/81/9 59/82/9
f 59/82/9 60/81/9 62/83/10 61/84/10
f 61/84/10 62/83/10 64/85/11 63/86/11
f 63/86/11 64/85/11 66/87/12 65/88/12
f 65/88/12 66/87/12 68/89/13 67/90/13
f 67/90/13 68/89/13 70/91/14 69/92/14
f 69/92/14 70/91/14 72/93/15 71/94/15
f 71/94/15 72/93/15 74/95/16 73/96/16
f 73/96/16 74/95/16 76/97/17 75/98/17
f 75/98/17 76/97/17 78/99/18 77/100/18
f 77/100/18 78/99/18 80/101/19 79/102/19
f 79/102/19 80/101/19 82/103/20 81/104/20
f 81/104/20 82/103/20 84/105/21 83/106/21
f 83/106/21 84/105/21 86/107/22 85/108/22
f 85/108/22 86/107/22 88/109/23 87/110/23
f 87/110/23 88/109/23 90/111/24 89/112/24
f 89/112/24 90/111/24 92/113/25 91/114/25
f 91/114/25 92/113/25 94/115/26 93/116/26
f 93/116/26 94/115/26 96/117/27 95/118/27
f 95/118/27 96/117/27 98/119/28 97/120/28
f 97/120/28 98/119/28 100/121/29 99/122/29
f 99/122/29 100/121/29 102/123/30 101/124/30
f 101/124/30 102/123/30 104/125/31 103/126/31
f 103/126/31 104/125/31 106/127/32 105/128/32
f 105/128/32 106/127/32 108/129/33 107/130/33
f 107/130/33 108/129/33 110/131/34 109/132/34
f 109/132/34 110/131/34 112/133/35 111/134/35
f 111/134/35 112/133/35 114/135/36 113/136/36
f 113/136/36 114/135/36 116/137/37 115/138/37
f 58/139/38 56/140/38 118/141/38 116/142/38 114/143/38 112/144/38 110/145/38 108/146/38 106/147/38 104/148/38 102/149/38 100/150/38 98/151/38 96/152/38 94/153/38 92/154/38 90/155/38 88/156/38 86/157/38 84/158/38 82/159/38 80/160/38 78/161/38 76/162/38 74/163/38 72/164/38 70/165/38 68/166/38 66/167/38 64/168/38 62/169/38 60/170/38
f 115/138/37 116/137/37 118/171/39 117/172/39
f 117/172/39 118/171/39 56/173/7 55/174/7
f 55/175/40 57/176/40 59/177/40 61/178/40 63/179/40 65/180/40 67/181/40 69/182/40 71/183/40 73/184/40 75/185/40 77/186/40 79/187/40 81/188/40 83/189/40 85/190/40 87/191/40 89/192/40 91/193/40 93/194/40 95/195/40 97/196/40 99/197/40 101/198/40 103/199/40 105/200/40 107/201/40 109/202/40 111/203/40 113/204/40 115/205/40 117/206/40
o Bulb.001
v 0.150000 0.075000 -1.900000
v 0.150000 0.075000 1.900000
v 0.169509 0.073078 -1.900000
v 0.169509 0.073079 1.900000
v 0.188268 0.067388 -1.900000
v 0.188268 0.067388 1.900000
v 0.205557 0.058147 -1.900000
v 0.205557 0.058147 1.900000
v 0.220711 0.045711 -1.900000
v 0.220711 0.045711 1.900000
v 0.233147 0.030557 -1.900000
v 0.233147 0.030557 1.900000
v 0.242388 0.013268 -1.900000
v 0.242388 0.013268 1.900000
v 0.248079 -0.005491 -1.900000
v 0.248079 -0.005491 1.900000
v 0.250000 -0.025000 -1.900000
v 0.250000 -0.025000 1.900000
v 0.248079 -0.044509 -1.900000
v 0.248079 -0.044509 1.900000
v 0.242388 -0.063268 -1.900000
v 0.242388 -0.063268 1.900000
v 0.233147 -0.080557 -1.900000
v 0.233147 -0.080557 1.900000
v 0.220711 -0.095711 -1.900000
v 0.220711 -0.095711 1.900000
v 0.205557 -0.108147 -1.900000
v 0.205557 -0.108147 1.900000
v 0.188268 -0.117388 -1.900000
v 0.188268 -0.117388 1.900000
v 0.169509 -0.123079 -1.900000
v 0.169509 -0.123078 1.900000
v 0.150000 -0.125000 -1.900000
v 0.150000 -0.125000 1.900000
v 0.130491 -0.123079 -1.900000
v 0.130491 -0.123078 1.900000
v 0.111732 -0.117388 -1.900000
v 0.111732 -0.117388 1.900000
v 0.094443 -0.108147 -1.900000
v 0.094443 -0.108147 1.900000
v 0.079289 -0.095711 -1.900000
v 0.079289 -0.095711 1.900000
v 0.066853 -0.080557 -1.900000
v 0.066853 -0.080557 1.900000
v 0.057612 -0.063268 -1.900000
v 0.057612 -0.063268 1.900000
v 0.051921 -0.044509 -1.900000
v 0.051921 -0.044509 1.900000
v 0.050000 -0.025000 -1.900000
v 0.050000 -0.025000 1.900000
v 0.051921 -0.005491 -1.900000
v 0.051921 -0.005491 1.900000
v 0.057612 0.013268 -1.900000
v 0.057612 0.013268 1.900000
v 0.066853 0.030557 -1.900000
v 0.066853 0.030557 1.900000
v 0.079289 0.045711 -1.900000
v 0.079289 0.045711 1.900000
v 0.094443 0.058147 -1.900000
v 0.094443 0.058147 1.900000
v 0.111732 0.067388 -1.900000
v 0.111732 0.067388 1.900000
v 0.130491 0.073078 -1.900000
v 0.130491 0.073079 1.900000
vn -0.0000 1.0000 -0.0000
vn 0.1951 0.9808 -0.0000
vn 0.3827 0.9239 -0.0000
vn 0.5556 0.8315 -0.0000
vn 0.7071 0.7071 -0.0000
vn 0.8315 0.5556 -0.0000
vn 0.9239 0.3827 -0.0000
vn 0.9808 0.1951 -0.0000
vn 1.0000 -0.0000 -0.0000
vn 0.9808 -0.1951 -0.0000
vn 0.9239 -0.3827 -0.0000
vn 0.8315 -0.5556 -0.0000
vn 0.7071 -0.7071 -0.0000
vn 0.5556 -0.8315 -0.0000
vn 0.3827 -0.9239 -0.0000
vn 0.1951 -0.9808 -0.0000
vn -0.0000 -1.0000 -0.0000
vn -0.1951 -0.9808 -0.0000
vn -0.3827 -0.9239 -0.0000
vn -0.5556 -0.8315 -0.0000
vn -0.7071 -0.7071 -0.0000
vn -0.8315 -0.5556 -0.0000
vn -0.9239 -0.3827 -0.0000
vn -0.9808 -0.1951 -0.0000
vn -1.0000 -0.0000 -0.0000
vn -0.9808 0.1951 -0.0000
vn -0.9239 0.3827 -0.0000
vn -0.8315 0.5556 -0.0000
vn -0.7071 0.7071 -0.0000
vn -0.5556 0.8315 -0.0000
vn -0.3827 0.9239 -0.0000
vn -0.0000 -0.0000 1.0000
vn -0.1951 0.9808 -0.0000
vn -0.0000 -0.0000 -1.0000
vt 1.000000 0.500000
vt 1.000000 1.000000
vt 0.968750 1.000000
vt 0.968750 0.500000
vt 0.937500 1.000000
vt 0.937500 0.500000
vt 0.906250 1.000000
vt 0.906250 0.500000
vt 0.875000 1.000000
vt 0.875000 0.500000
vt 0.843750 1.000000
vt 0.843750 0.500000
vt 0.812500 1.000000
vt 0.812500 0.500000
vt 0.781250 1.000000
vt 0.781250 0.500000
vt 0.750000 1.000000
vt 0.750000 0.500000
vt 0.718750 1.000000
vt 0.718750 0.500000
vt 0.687500 1.000000
vt 0.687500 0.500000
vt 0.656250 1.000000
vt 0.656250 0.500000
vt 0.625000 1.000000
vt 0.625000 0.500000
vt 0.593750 1.000000
vt 0.593750 0.500000
vt 0.562500 1.000000
vt 0.562500 0.500000
vt 0.531250 1.000000
vt 0.531250 0.500000
vt 0.500000 1.000000
vt 0.500000 0.500000
vt 0.468750 1.000000
vt 0.468750 0.500000
vt 0.437500 1.000000
vt 0.437500 0.500000
vt 0.406250 1.000000
vt 0.406250 0.500000
vt 0.375000 1.000000
vt 0.375000 0.500000
vt 0.343750 1.000000
vt 0.343750 0.500000
vt 0.312500 1.000000
vt 0.312500 0.500000
vt 0.281250 1.000000
vt 0.281250 0.500000
vt 0.250000 1.000000
vt 0.250000 0.500000
vt 0.218750 1.000000
vt 0.218750 0.500000
vt 0.187500 1.000000
vt 0.187500 0.500000
vt 0.156250 1.000000
vt 0.156250 0.500000
vt 0.125000 1.000000
vt 0.125000 0.500000
vt 0.093750 1.000000
vt 0.093750 0.500000
vt 0.062500 1.000000
vt 0.062500 0.500000
vt 0.296822 0.485388
vt 0.250000 0.490000
vt 0.203178 0.485388
vt 0.158156 0.471731
vt 0.116663 0.449553
vt 0.080294 0.419706
vt 0.050447 0.383337
vt 0.028269 0.341844
vt 0.014612 0.296822
vt 0.010000 0.250000
vt 0.014612 0.203178
vt 0.028269 0.158156
vt 0.050447 0.116663
vt 0.080294 0.080294
vt 0.116663 0.050447
vt 0.158156 0.028269
vt 0.203178 0.014612
vt 0.250000 0.010000
vt 0.296822 0.014612
vt 0.341844 0.028269
vt 0.383337 0.050447
vt 0.419706 0.080294
vt 0.449553 0.116663
vt 0.471731 0.158156
vt 0.485388 0.203178
vt 0.490000 0.250000
vt 0.485388 0.296822
vt 0.471731 0.341844
vt 0.449553 0.383337
vt 0.419706 0.419706
vt 0.383337 0.449553
vt 0.341844 0.471731
vt 0.031250 1.000000
vt 0.031250 0.500000
vt 0.000000 1.000000
vt 0.000000 0.500000
vt 0.750000 0.490000
vt 0.796822 0.485388
vt 0.841844 0.471731
vt 0.883337 0.449553
vt 0.919706 0.419706
vt 0.949553 0.383337
vt 0.971731 0.341844
vt 0.985388 0.296822
vt 0.990000 0.250000
vt 0.985388 0.203178
vt 0.971731 0.158156
vt 0.949553 0.116663
vt 0.919706 0.080294
vt 0.883337 0.050447
vt 0.841844 0.028269
vt 0.796822 0.014612
vt 0.750000 0.010000
vt 0.703178 0.014612
vt 0.658156 0.028269
vt 0.616663 0.050447
vt 0.580294 0.080294
vt 0.550447 0.116663
vt 0.528269 0.158156
vt 0.514612 0.203178
vt 0.510000 0.250000
vt 0.514612 0.296822
vt 0.528269 0.341844
vt 0.550447 0.383337
vt 0.580294 0.419706
vt 0.616663 0.449553
vt 0.658156 0.471731
vt 0.703178 0.485388
s 1
f 119/207/41 120/208/41 122/209/42 121/210/42
f 121/210/42 122/209/42 124/211/43 123/212/43
f 123/212/43 124/211/43 126/213/44 125/214/44
f 125/214/44 126/213/44 128/215/45 127/216/45
f 127/216/45 128/215/45 130/217/46 129/218/46
f 129/218/46 130/217/46 132/219/47 131/220/47
f 131/220/47 132/219/47 134/221/48 133/222/48
f 133/222/48 134/221/48 136/223/49 135/224/49
f 135/224/49 136/223/49 138/225/50 137/226/50
f 137/226/50 138/225/50 140/227/51 139/228/51
f 139/228/51 140/227/51 142/229/52 141/230/52
f 141/230/52 142/229/52 144/231/53 143/232/53
f 143/232/53 144/231/53 146/233/54 145/234/54
f 145/234/54 146/233/54 148/235/55 147/236/55
f 147/236/55 148/235/55 150/237/56 149/238/56
f 149/238/56 150/237/56 152/239/57 151/240/57
f 151/240/57 152/239/57 154/241/58 153/242/58
f 153/242/58 154/241/58 156/243/59 155/244/59
f 155/244/59 156/243/59 158/245/60 157/246/60
f 157/246/60 158/245/60 160/247/61 159/248/61
f 159/248/61 160/247/61 162/249/62 161/250/62
f 161/250/62 162/249/62 164/251/63 163/252/63
f 163/252/63 164/251/63 166/253/64 165/254/64
f 165/254/64 166/253/64 168/255/65 167/256/65
f 167/256/65 168/255/65 170/257/66 169/258/66
f 169/258/66 170/257/66 172/259/67 171/260/67
f 171/260/67 172/259/67 174/261/68 173/262/68
f 173/262/68 174/261/68 176/263/69 175/264/69
f 175/264/69 176/263/69 178/265/70 177/266/70
f 177/266/70 178/265/70 180/267/71 179/268/71
f 122/269/72 120/270/72 182/271/72 180/272/72 178/273/72 176/274/72 174/275/72 172/276/72 170/277/72 168/278/72 166/279/72 164/280/72 162/281/72 160/282/72 158/283/72 156/284/72 154/285/72 152/286/72 150/287/72 148/288/72 146/289/72 144/290/72 142/291/72 140/292/72 138/293/72 136/294/72 134/295/72 132/296/72 130/297/72 128/298/72 126/299/72 124/300/72
f 179/268/71 180/267/71 182/301/73 181/302/73
f 181/302/73 182/301/73 120/303/41 119/304/41
f 119/305/74 121/306/74 123/307/74 125/308/74 127/309/74 129/310/74 131/311/74 133/312/74 135/313/74 137/314/74 139/315/74 141/316/74 143/317/74 145/318/74 147/319/74 149/320/74 151/321/74 153/322/74 155/323/74 157/324/74 159/325/74 161/326/74 163/327/74 165/328/74 167/329/74 169/330/74 171/331/74 173/332/74 175/333/74 177/334/74 179/335/74 181/336/74
