# Blender 4.5.3 LTS
# www.blender.org
mtllib Painting.mtl
o Canvas
v 0.055000 0.400000 -0.600000
v 0.055000 -0.400000 -0.600000
v 0.055000 0.400000 0.600000
v 0.055000 -0.400000 0.600000
v 0.005000 0.400000 -0.600000
v 0.005000 -0.400000 -0.600000
v 0.005000 0.400000 0.600000
v 0.005000 -0.400000 0.600000
vn -0.0000 1.0000 -0.0000
vn -0.0000 -0.0000 1.0000
vn -1.0000 -0.0000 -0.0000
vn -0.0000 -1.0000 -0.0000
vn 1.0000 -0.0000 -0.0000
vn -0.0000 -0.0000 -1.0000
vt 0.625000 0.500000
vt 0.875000 0.500000
vt 0.875000 0.750000
vt 0.625000 0.750000
vt 0.375000 0.750000
vt 0.625000 1.000000
vt 0.375000 1.000000
vt 0.375000 0.000000
vt 0.625000 0.000000
vt 0.625000 0.250000
vt 0.375000 0.250000
vt 0.125000 0.500000
vt 0.375000 0.500000
vt 0.125000 0.750000
s 0
f 1/1/1 5/2/1 7/3/1 3/4/1
f 4/5/2 3/4/2 7/6/2 8/7/2
f 8/8/3 7/9/3 5/10/3 6/11/3
f 6/12/4 2/13/4 4/5/4 8/14/4
f 2/13/5 1/1/5 3/4/5 4/5/5
f 6/11/6 5/10/6 1/1/6 2/13/6
o Frame
v 0.000000 -0.450000 0.650000
v 0.000000 0.450000 0.650000
v 0.000000 -0.450000 -0.650000
v 0.000000 0.450000 -0.650000
v 0.100000 -0.450000 0.650000
v 0.100000 0.450000 0.650000
v 0.100000 -0.450000 -0.650000
v 0.100000 0.450000 -0.650000
v 0.000000 -0.450000 0.600254
v 0.000000 0.450000 0.600254
v 0.100000 -0.450000 0.600254
v 0.100000 0.450000 0.600254
v 0.000000 0.450000 -0.600479
v 0.100000 -0.450000 -0.600479
v 0.000000 -0.450000 -0.600479
v 0.100000 0.450000 -0.600479
v 0.000000 0.400261 0.650000
v 0.000000 0.400261 -0.650000
v 0.100000 0.400261 -0.650000
v 0.100000 0.400261 0.650000
v 0.100000 0.400261 0.600254
v 0.000000 0.400261 0.600254
v 0.100000 0.400261 -0.600479
v 0.000000 0.400261 -0.600479
v 0.000000 -0.400295 -0.650000
v 0.100000 -0.400295 -0.650000
v 0.100000 -0.400295 0.650000
v 0.100000 -0.400295 0.600254
v 0.000000 -0.400295 0.600254
v 0.100000 -0.400295 -0.600479
v 0.000000 -0.400295 -0.600479
v 0.000000 -0.400295 0.650000
vn -1.0000 -0.0000 -0.0000
vn -0.0000 -0.0000 -1.0000
vn 1.0000 -0.0000 -0.0000
vn -0.0000 -0.0000 1.0000
vn -0.0000 -1.0000 -0.0000
vn -0.0000 1.0000 -0.0000
vt 0.612500 0.241101
vt 0.625000 0.241101
vt 0.625000 0.250000
vt 0.612500 0.250000
vt 0.625000 0.500000
vt 0.612500 0.500000
vt 0.612500 0.741071
vt 0.625000 0.741071
vt 0.625000 0.750000
vt 0.612500 0.750000
vt 0.625000 1.000000
vt 0.612500 1.000000
vt 0.125000 0.741071
vt 0.375000 0.741071
vt 0.375000 0.750000
vt 0.125000 0.750000
vt 0.875000 0.741071
vt 0.875000 0.750000
vt 0.625000 0.508899
vt 0.875000 0.508899
vt 0.125000 0.508899
vt 0.375000 0.508899
vt 0.612500 0.508899
vt 0.612500 0.000000
vt 0.625000 0.000000
vt 0.625000 0.008929
vt 0.612500 0.008929
vt 0.125000 0.500000
vt 0.375000 0.500000
vt 0.875000 0.500000
vt 0.386875 0.008929
vt 0.386875 0.241101
vt 0.386875 0.500000
vt 0.386875 0.508899
vt 0.386875 0.000000
vt 0.386875 0.750000
vt 0.386875 1.000000
vt 0.386875 0.741071
vt 0.386875 0.250000
vt 0.375000 0.241101
vt 0.375000 0.250000
vt 0.375000 1.000000
vt 0.375000 0.000000
vt 0.375000 0.008929
vt 0.000000 0.000000
s 0
f 32/15/7 21/16/7 12/17/7 26/18/7
f 26/18/8 12/17/8 16/19/8 27/20/8
f 29/21/9 20/22/9 14/23/9 28/24/9
f 28/24/10 14/23/10 10/25/10 25/26/10
f 17/27/11 19/28/11 13/29/11 9/30/11
f 20/22/12 18/31/12 10/32/12 14/23/12
f 24/33/12 21/34/12 18/31/12 20/22/12
f 23/35/11 22/36/11 19/28/11 17/27/11
f 31/37/9 24/33/9 20/22/9 29/21/9
f 25/38/7 10/39/7 18/40/7 30/41/7
f 27/20/9 16/19/9 24/33/9 31/37/9
f 11/42/11 15/43/11 22/36/11 23/35/11
f 16/19/12 12/44/12 21/34/12 24/33/12
f 30/41/7 18/40/7 21/16/7 32/15/7
f 37/45/7 30/41/7 32/15/7 39/46/7
f 34/47/9 27/20/9 31/37/9 38/48/9
f 40/49/7 25/38/7 30/41/7 37/45/7
f 30/41/12 29/21/12 31/37/12 32/15/12
f 35/50/10 28/24/10 25/26/10 40/51/10
f 36/52/9 29/21/9 28/24/9 35/50/9
f 33/53/8 26/18/8 27/20/8 34/47/8
f 39/46/7 32/15/7 26/18/7 33/53/7
f 23/54/7 39/46/7 33/53/7 11/55/7
f 11/55/8 33/53/8 34/47/8 15/43/8
f 19/28/9 36/52/9 35/50/9 13/29/9
f 13/29/10 35/50/10 40/51/10 9/56/10
f 22/36/9 38/48/9 36/52/9 19/28/9
f 9/57/7 40/49/7 37/45/7 17/58/7
f 15/43/9 34/47/9 38/48/9 22/36/9
f 17/58/7 37/45/7 39/46/7 23/54/7
f 31/59/10 32/59/10 39/59/10 38/59/10
f 38/59/12 39/59/12 37/59/12 36/59/12
f 30/59/8 29/59/8 36/59/8 37/59/8
