# Blender 4.5.3 LTS
# www.blender.org
mtllib Window.mtl
o Frame
v 0.200000 2.000000 -1.500000
v 0.200000 -2.000000 -1.500000
v 0.200000 2.000000 1.500000
v 0.200000 -2.000000 1.500000
v -0.200000 2.000000 -1.500000
v -0.200000 -2.000000 -1.500000
v -0.200000 2.000000 1.500000
v -0.200000 -2.000000 1.500000
v -0.200000 -2.000000 1.350000
v 0.200000 2.000000 1.350000
v -0.200000 2.000000 1.350000
v 0.200000 -2.000000 1.350000
v -0.200000 2.000000 -1.357500
v 0.200000 -2.000000 -1.357500
v -0.200000 -2.000000 -1.357500
v 0.200000 2.000000 -1.357500
v 0.200000 1.800000 -1.500000
v -0.200000 1.800000 1.500000
v 0.200000 1.800000 1.500000
v -0.200000 1.800000 -1.500000
v 0.200000 1.800000 1.350000
v -0.200000 1.800000 1.350000
v 0.200000 1.800000 -1.357500
v -0.200000 1.800000 -1.357500
v 0.200000 -1.810000 -1.500000
v 0.200000 -1.810000 1.500000
v -0.200000 -1.810000 -1.500000
v 0.200000 -1.810000 1.350000
v -0.200000 -1.810000 1.350000
v 0.200000 -1.810000 -1.357500
v -0.200000 -1.810000 -1.357500
v -0.200000 -1.810000 1.500000
vn -0.0000 1.0000 -0.0000
vn -0.0000 -0.0000 1.0000
vn -1.0000 -0.0000 -0.0000
vn -0.0000 -1.0000 -0.0000
vn 1.0000 -0.0000 -0.0000
vn -0.0000 -0.0000 -1.0000
vt 0.625000 0.737500
vt 0.875000 0.737500
vt 0.875000 0.750000
vt 0.625000 0.750000
vt 0.612500 0.750000
vt 0.625000 1.000000
vt 0.612500 1.000000
vt 0.612500 0.238125
vt 0.625000 0.238125
vt 0.625000 0.250000
vt 0.612500 0.250000
vt 0.125000 0.737500
vt 0.375000 0.737500
vt 0.375000 0.750000
vt 0.125000 0.750000
vt 0.612500 0.737500
vt 0.625000 0.500000
vt 0.612500 0.500000
vt 0.612500 0.511875
vt 0.625000 0.511875
vt 0.125000 0.511875
vt 0.375000 0.511875
vt 0.612500 0.000000
vt 0.625000 0.000000
vt 0.625000 0.012500
vt 0.612500 0.012500
vt 0.875000 0.511875
vt 0.875000 0.500000
vt 0.125000 0.500000
vt 0.375000 0.500000
vt 0.386875 0.511875
vt 0.386875 0.238125
vt 0.386875 0.012500
vt 0.386875 0.737500
vt 0.386875 0.500000
vt 0.386875 0.000000
vt 0.386875 0.250000
vt 0.386875 0.750000
vt 0.386875 1.000000
vt 0.375000 1.000000
vt 0.375000 0.238125
vt 0.375000 0.250000
vt 0.375000 0.000000
vt 0.375000 0.012500
s 0
usemtl Material
f 10/1/1 11/2/1 7/3/1 3/4/1
f 19/5/2 3/4/2 7/6/2 18/7/2
f 24/8/3 13/9/3 5/10/3 20/11/3
f 9/12/4 12/13/4 4/14/4 8/15/4
f 21/16/5 10/1/5 3/4/5 19/5/5
f 20/11/6 5/10/6 1/17/6 17/18/6
f 23/19/5 16/20/5 10/1/5 21/16/5
f 15/21/4 14/22/4 12/13/4 9/12/4
f 18/23/3 7/24/3 11/25/3 22/26/3
f 16/20/1 13/27/1 11/2/1 10/1/1
f 1/17/1 5/28/1 13/27/1 16/20/1
f 6/29/4 2/30/4 14/22/4 15/21/4
f 17/18/5 1/17/5 16/20/5 23/19/5
f 22/26/3 11/25/3 13/9/3 24/8/3
f 30/31/1 31/32/1 29/33/1 28/34/1
f 25/35/5 17/18/5 23/19/5 30/31/5
f 32/36/3 18/23/3 22/26/3 29/33/3
f 28/34/6 29/33/6 22/26/6 21/16/6
f 27/37/6 20/11/6 17/18/6 25/35/6
f 28/34/5 21/16/5 19/5/5 26/38/5
f 31/32/3 24/8/3 20/11/3 27/37/3
f 26/38/2 19/5/2 18/7/2 32/39/2
f 4/14/2 26/38/2 32/39/2 8/40/2
f 15/41/3 31/32/3 27/37/3 6/42/3
f 12/13/5 28/34/5 26/38/5 4/14/5
f 6/42/6 27/37/6 25/35/6 2/30/6
f 14/22/5 30/31/5 28/34/5 12/13/5
f 8/43/3 32/36/3 29/33/3 9/44/3
f 2/30/5 25/35/5 30/31/5 14/22/5
f 9/44/3 29/33/3 31/32/3 15/41/3
f 30/31/2 23/19/2 24/8/2 31/32/2
f 22/26/4 24/8/4 23/19/4 21/16/4
o InnerFrame
v -0.100000 -0.100000 1.400000
v -0.100000 0.100000 1.400000
v -0.100000 -0.100000 -1.400000
v -0.100000 0.100000 -1.400000
v 0.100000 -0.100000 1.400000
v 0.100000 0.100000 1.400000
v 0.100000 -0.100000 -1.400000
v 0.100000 0.100000 -1.400000
v -0.100000 -0.100000 -0.095283
v -0.100000 0.100000 -0.095283
v 0.100000 -0.100000 -0.095283
v 0.100000 0.100000 -0.095283
v -0.100000 -0.100000 0.098980
v 0.100000 0.100000 0.098980
v -0.100000 0.100000 0.098980
v 0.100000 -0.100000 0.098980
v -0.100000 1.840984 -0.095283
v 0.100000 1.840984 -0.095283
v 0.100000 1.840984 0.098980
v -0.100000 1.840984 0.098980
v -0.100000 -1.851239 -0.095283
v 0.100000 -1.851239 -0.095283
v -0.100000 -1.851239 0.098980
v 0.100000 -1.851239 0.098980
vn -1.0000 -0.0000 -0.0000
vn -0.0000 -0.0000 -1.0000
vn 1.0000 -0.0000 -0.0000
vn -0.0000 -0.0000 1.0000
vn -0.0000 -1.0000 -0.0000
vn -0.0000 1.0000 -0.0000
vt 0.375000 0.133507
vt 0.625000 0.133507
vt 0.625000 0.250000
vt 0.375000 0.250000
vt 0.625000 0.500000
vt 0.375000 0.500000
vt 0.375000 0.633838
vt 0.625000 0.633838
vt 0.625000 0.750000
vt 0.375000 0.750000
vt 0.625000 1.000000
vt 0.375000 1.000000
vt 0.125000 0.633838
vt 0.125000 0.750000
vt 0.875000 0.633838
vt 0.875000 0.750000
vt 0.875000 0.500000
vt 0.875000 0.616493
vt 0.625000 0.616493
vt 0.125000 0.500000
vt 0.375000 0.616493
vt 0.125000 0.616493
vt 0.375000 0.116163
vt 0.625000 0.116163
vt 0.375000 0.000000
vt 0.625000 0.000000
s 0
f 41/45/7 42/46/7 36/47/7 35/48/7
f 35/48/8 36/47/8 40/49/8 39/50/8
f 48/51/9 46/52/9 38/53/9 37/54/9
f 37/54/10 38/53/10 34/55/10 33/56/10
f 45/57/11 48/51/11 37/54/11 33/58/11
f 46/52/12 47/59/12 34/60/12 38/53/12
f 40/49/12 36/61/12 42/62/12 44/63/12
f 35/64/11 39/50/11 43/65/11 41/66/11
f 39/50/9 40/49/9 44/63/9 43/65/9
f 45/67/7 47/68/7 42/46/7 41/45/7
f 33/69/7 34/70/7 47/68/7 45/67/7
f 44/63/8 42/62/8 49/62/8 50/63/8
f 43/65/9 48/51/9 56/51/9 54/65/9
f 43/65/9 44/63/9 46/52/9 48/51/9
f 50/63/12 49/62/12 52/59/12 51/52/12
f 47/59/10 46/52/10 51/52/10 52/59/10
f 46/52/9 44/63/9 50/63/9 51/52/9
f 42/46/7 47/68/7 52/68/7 49/46/7
f 53/66/11 54/65/11 56/51/11 55/57/11
f 41/66/8 43/65/8 54/65/8 53/66/8
f 48/51/10 45/57/10 55/57/10 56/51/10
f 45/67/7 41/45/7 53/45/7 55/67/7
